# xmcd CD database file
#
# Track frame offsets:
#	150
#	10140
#	22902
#	37385
#	53567
#	67055
#	78890
#	91955
#	107602
#	120002
#	133817
#	148505
#
# Disc length: 2194 seconds
#
# Revision: 0
# Processed by: cddbd v1.5.1PL0 Copyright (c) Steve Scherf et al.
# Submitted via: CDex 1.51
#
DISCID=9408900c
DTITLE=Lance Strode - That's Just The Memphis In Me
DYEAR=2003
DGENRE=Country
TTITLE0=Well Versed In The Blues
TTITLE1=Stranger In Love Town
TTITLE2=John Barleycorn
TTITLE3=Forever In My Arms
TTITLE4=The Reason Why
TTITLE5=Show Me Yours, I'll Show You Mine
TTITLE6=Monday Go Away
TTITLE7=Vegas Jailhouse
TTITLE8=This Ol' Jukebox
TTITLE9=Make Up My Mind
TTITLE10=You Can Say That Again
TTITLE11=That's Just The Memphis In Me
EXTD=YEAR: 2003
EXTT0=
EXTT1=
EXTT2=
EXTT3=
EXTT4=
EXTT5=
EXTT6=
EXTT7=
EXTT8=
EXTT9=
EXTT10=
EXTT11=
PLAYORDER=
